{"accessors" : [{"bufferView" : 0, "byteOffset" : 0, "componentType" : 5123, "count" : 372, "type" : "SCALAR", "max" : [371], "min" : [0]}, {"bufferView" : 1, "byteOffset" : 0, "componentType" : 5126, "count" : 372, "type" : "VEC3", "max" : [1, 0, 4], "min" : [-1, -1, 0], "name" : "POSITION"}, {"bufferView" : 1, "byteOffset" : 12, "componentType" : 5126, "count" : 372, "type" : "VEC3", "max" : [1.0000044107437134, 1.0000044107437134, 1.0000044107437134], "min" : [-1.0000044107437134, -1.0000044107437134, -1.0000044107437134], "name" : "NORMAL"}, {"bufferView" : 1, "byteOffset" : 24, "componentType" : 5126, "count" : 372, "type" : "VEC2", "max" : [0.9988903999328613, -0.0011094313813373446], "min" : [0.0011094302171841264, -0.9988905191421509], "name" : "TEXCOORD_0"}, {"bufferView" : 0, "byteOffset" : 744, "componentType" : 5123, "count" : 906, "type" : "SCALAR", "max" : [905], "min" : [0]}, {"bufferView" : 2, "byteOffset" : 0, "componentType" : 5126, "count" : 906, "type" : "VEC3", "max" : [-0.2946515679359436, -0.4852822422981262, 0.420604944229126], "min" : [-0.8585964441299438, -0.9405059218406677, 0.038485705852508545], "name" : "POSITION"}, {"bufferView" : 2, "byteOffset" : 12, "componentType" : 5126, "count" : 906, "type" : "VEC3", "max" : [0.9822402596473694, 0.9803938269615173, 0.9945729970932007], "min" : [-0.9822338223457336, -0.9707821607589722, -0.9999979138374329], "name" : "NORMAL"}, {"bufferView" : 0, "byteOffset" : 2556, "componentType" : 5123, "count" : 47232, "type" : "SCALAR", "max" : [47231], "min" : [0]}, {"bufferView" : 3, "byteOffset" : 0, "componentType" : 5126, "count" : 47232, "type" : "VEC3", "max" : [0.8375571370124817, -0.5769568085670471, 1.2855392694473267], "min" : [0.21643571555614471, -0.9512394070625305, 0.8386893272399902], "name" : "POSITION"}, {"bufferView" : 3, "byteOffset" : 12, "componentType" : 5126, "count" : 47232, "type" : "VEC3", "max" : [0.9994705319404602, 1.0000040531158447, 0.9999757409095764], "min" : [-0.9994704723358154, -0.9999877214431763, -0.9990910291671753], "name" : "NORMAL"}, {"bufferView" : 3, "byteOffset" : 24, "componentType" : 5126, "count" : 47232, "type" : "VEC2", "max" : [0.9998559951782227, -0.00014400000509340316], "min" : [0.00014400000509340316, -0.9048510193824768], "name" : "TEXCOORD_0"}, {"bufferView" : 0, "byteOffset" : 97020, "componentType" : 5123, "count" : 2016, "type" : "SCALAR", "max" : [2015], "min" : [0]}, {"bufferView" : 4, "byteOffset" : 0, "componentType" : 5126, "count" : 2016, "type" : "VEC3", "max" : [-0.05658784508705139, -0.7980223298072815, 2.294165849685669], "min" : [-0.7120643854141235, -0.918820321559906, 1.6386892795562744], "name" : "POSITION"}, {"bufferView" : 4, "byteOffset" : 12, "componentType" : 5126, "count" : 2016, "type" : "VEC3", "max" : [1.0000044107437134, 1.0000044107437134, 1.0000044107437134], "min" : [-1.0000044107437134, -1.0000044107437134, -1.0000044107437134], "name" : "NORMAL"}, {"bufferView" : 0, "byteOffset" : 101052, "componentType" : 5123, "count" : 14910, "type" : "SCALAR", "max" : [14909], "min" : [0]}, {"bufferView" : 5, "byteOffset" : 0, "componentType" : 5126, "count" : 14910, "type" : "VEC3", "max" : [0.23047155141830444, -0.6687407493591309, 2.8680670261383057], "min" : [-0.05880376696586609, -0.9192605018615723, 2.4386892318725586], "name" : "POSITION"}, {"bufferView" : 5, "byteOffset" : 12, "componentType" : 5126, "count" : 14910, "type" : "VEC3", "max" : [1.0000044107437134, 1.0000044107437134, 1.0000044107437134], "min" : [-1.0000044107437134, -1.0000044107437134, -1.0000044107437134], "name" : "NORMAL"}, {"bufferView" : 0, "byteOffset" : 130872, "componentType" : 5123, "count" : 11520, "type" : "SCALAR", "max" : [11519], "min" : [0]}, {"bufferView" : 6, "byteOffset" : 0, "componentType" : 5126, "count" : 11520, "type" : "VEC3", "max" : [0.5674315094947815, -0.6503459215164185, 3.438189744949341], "min" : [0.39849627017974854, -0.8192813396453857, 3.2386879920959473], "name" : "POSITION"}, {"bufferView" : 6, "byteOffset" : 12, "componentType" : 5126, "count" : 11520, "type" : "VEC3", "max" : [1.0000044107437134, 1.0000044107437134, 1.0000044107437134], "min" : [-1.0000044107437134, -1.0000044107437134, -1.0000044107437134], "name" : "NORMAL"}, {"bufferView" : 0, "byteOffset" : 153912, "componentType" : 5123, "count" : 384, "type" : "SCALAR", "max" : [383], "min" : [0]}, {"bufferView" : 7, "byteOffset" : 0, "componentType" : 5126, "count" : 384, "type" : "VEC3", "max" : [0.5009638667106628, -0.7168135643005371, 3.507939100265503], "min" : [0.4649638533592224, -0.7528135776519775, 3.437939167022705], "name" : "POSITION"}, {"bufferView" : 7, "byteOffset" : 12, "componentType" : 5126, "count" : 384, "type" : "VEC3", "max" : [1.0000044107437134, 1.0000044107437134, 0], "min" : [-1.0000044107437134, -1.0000044107437134, -0.9363412857055664], "name" : "NORMAL"}, {"bufferView" : 0, "byteOffset" : 154680, "componentType" : 5123, "count" : 576, "type" : "SCALAR", "max" : [575], "min" : [0]}, {"bufferView" : 8, "byteOffset" : 0, "componentType" : 5126, "count" : 576, "type" : "VEC3", "max" : [0.5079638361930847, -0.7098135948181152, 3.493939161300659], "min" : [0.45796385407447815, -0.7598135471343994, 3.4929392337799072], "name" : "POSITION"}, {"bufferView" : 8, "byteOffset" : 12, "componentType" : 5126, "count" : 576, "type" : "VEC3", "max" : [0.9951881766319275, 0.9951892495155334, 1.0000044107437134], "min" : [-0.9951881766319275, -0.9951892495155334, -1.0000044107437134], "name" : "NORMAL"}, {"bufferView" : 0, "byteOffset" : 155832, "componentType" : 5123, "count" : 24, "type" : "SCALAR", "max" : [23], "min" : [0]}, {"bufferView" : 9, "byteOffset" : 0, "componentType" : 5126, "count" : 24, "type" : "VEC3", "max" : [0.5619639158248901, -0.7338135838508606, 3.6559391021728516], "min" : [0.5039638876914978, -0.7348135709762573, 3.491939067840576], "name" : "POSITION"}, {"bufferView" : 9, "byteOffset" : 12, "componentType" : 5126, "count" : 24, "type" : "VEC3", "max" : [0.9445827603340149, 1.0000044107437134, 0.328305721282959], "min" : [-0.9445762038230896, -1.0000044107437134, -0.3282864987850189], "name" : "NORMAL"}, {"bufferView" : 0, "byteOffset" : 155880, "componentType" : 5123, "count" : 24, "type" : "SCALAR", "max" : [23], "min" : [0]}, {"bufferView" : 10, "byteOffset" : 0, "componentType" : 5126, "count" : 24, "type" : "VEC3", "max" : [0.46296384930610657, -0.7338135838508606, 3.6559391021728516], "min" : [0.4049638509750366, -0.7348135709762573, 3.491939067840576], "name" : "POSITION"}, {"bufferView" : 10, "byteOffset" : 12, "componentType" : 5126, "count" : 24, "type" : "VEC3", "max" : [0.9445762038230896, 1.0000044107437134, 0.328305721282959], "min" : [-0.9445827603340149, -1.0000044107437134, -0.3282864987850189], "name" : "NORMAL"}, {"bufferView" : 0, "byteOffset" : 155928, "componentType" : 5123, "count" : 1440, "type" : "SCALAR", "max" : [1439], "min" : [0]}, {"bufferView" : 11, "byteOffset" : 0, "componentType" : 5126, "count" : 1440, "type" : "VEC3", "max" : [0.5029638409614563, -0.7148135900497437, 3.5379390716552734], "min" : [0.46296387910842896, -0.754813551902771, 3.497939109802246], "name" : "POSITION"}, {"bufferView" : 11, "byteOffset" : 12, "componentType" : 5126, "count" : 1440, "type" : "VEC3", "max" : [1.0000044107437134, 1.0000044107437134, 1.0000044107437134], "min" : [-1.0000042915344238, -1.0000044107437134, -1.0000042915344238], "name" : "NORMAL"}, {"bufferView" : 11, "byteOffset" : 24, "componentType" : 5126, "count" : 1440, "type" : "VEC2", "max" : [1, -0], "min" : [0, -1], "name" : "TEXCOORD_0"}, {"bufferView" : 0, "byteOffset" : 158808, "componentType" : 5123, "count" : 960, "type" : "SCALAR", "max" : [959], "min" : [0]}, {"bufferView" : 12, "byteOffset" : 0, "componentType" : 5126, "count" : 960, "type" : "VEC3", "max" : [0.6429638862609863, -0.5748136043548584, 3.6579391956329346], "min" : [0.3229638636112213, -0.8948135375976562, 3.4579391479492188], "name" : "POSITION"}, {"bufferView" : 12, "byteOffset" : 12, "componentType" : 5126, "count" : 960, "type" : "VEC3", "max" : [1.0000044107437134, 1.0000044107437134, 1.0000044107437134], "min" : [-1.0000044107437134, -1.0000044107437134, -1.0000044107437134], "name" : "NORMAL"}], "asset" : {"generator" : "Aspose.3D 23.9.0", "version" : "2.0"}, "buffers" : [{"uri" : "data:application/octet-stream;base64,", "byteLength" : 2481868}], "bufferViews" : [{"buffer" : 0, "byteOffset" : 0, "byteLength" : 160728, "target" : 34963}, {"buffer" : 0, "byteOffset" : 160732, "byteLength" : 11904, "byteStride" : 32, "target" : 34962}, {"buffer" : 0, "byteOffset" : 172640, "byteLength" : 21744, "byteStride" : 24, "target" : 34962}, {"buffer" : 0, "byteOffset" : 194388, "byteLength" : 1511424, "byteStride" : 32, "target" : 34962}, {"buffer" : 0, "byteOffset" : 1705816, "byteLength" : 48384, "byteStride" : 24, "target" : 34962}, {"buffer" : 0, "byteOffset" : 1754204, "byteLength" : 357840, "byteStride" : 24, "target" : 34962}, {"buffer" : 0, "byteOffset" : 2112048, "byteLength" : 276480, "byteStride" : 24, "target" : 34962}, {"buffer" : 0, "byteOffset" : 2388532, "byteLength" : 9216, "byteStride" : 24, "target" : 34962}, {"buffer" : 0, "byteOffset" : 2397752, "byteLength" : 13824, "byteStride" : 24, "target" : 34962}, {"buffer" : 0, "byteOffset" : 2411580, "byteLength" : 576, "byteStride" : 24, "target" : 34962}, {"buffer" : 0, "byteOffset" : 2412160, "byteLength" : 576, "byteStride" : 24, "target" : 34962}, {"buffer" : 0, "byteOffset" : 2412740, "byteLength" : 46080, "byteStride" : 32, "target" : 34962}, {"buffer" : 0, "byteOffset" : 2458824, "byteLength" : 23040, "byteStride" : 24, "target" : 34962}], "materials" : [{"name" : "", "pbrMetallicRoughness" : {"baseColorFactor" : [0.800000011920929, 0.800000011920929, 0.800000011920929, 1], "metallicFactor" : 0, "roughnessFactor" : 0}, "emissiveFactor" : [0, 0, 0], "alphaMode" : "OPAQUE", "doubleSided" : false}, {"name" : "", "pbrMetallicRoughness" : {"baseColorFactor" : [0.800000011920929, 0.800000011920929, 0.800000011920929, 1], "metallicFactor" : 0, "roughnessFactor" : 0}, "emissiveFactor" : [0, 0, 0], "alphaMode" : "OPAQUE", "doubleSided" : false}, {"name" : "", "pbrMetallicRoughness" : {"baseColorFactor" : [0.2422848641872406, 0.15019795298576355, 0.07290244847536087, 1], "metallicFactor" : 0, "roughnessFactor" : 0}, "emissiveFactor" : [0, 0, 0], "alphaMode" : "OPAQUE", "doubleSided" : false}, {"name" : "Gear", "pbrMetallicRoughness" : {"baseColorFactor" : [0.799102783203125, 0.45139580965042114, 0.22847653925418854, 1], "metallicFactor" : 0, "roughnessFactor" : 0}, "emissiveFactor" : [0, 0, 0], "alphaMode" : "OPAQUE", "doubleSided" : false}, {"name" : "Bolt", "pbrMetallicRoughness" : {"baseColorFactor" : [0.800000011920929, 0.800000011920929, 0.800000011920929, 1], "metallicFactor" : 0, "roughnessFactor" : 0}, "emissiveFactor" : [0, 0, 0], "alphaMode" : "OPAQUE", "doubleSided" : false}, {"name" : "Lamp_base_material", "pbrMetallicRoughness" : {"baseColorFactor" : [0.4451999068260193, 1, 0.9822505712509155, 1], "metallicFactor" : 0, "roughnessFactor" : 0}, "emissiveFactor" : [0, 0, 0], "alphaMode" : "OPAQUE", "doubleSided" : false}, {"name" : "Lampholder_material", "pbrMetallicRoughness" : {"baseColorFactor" : [0.8000000715255737, 0.7472918033599854, 0.6539444327354431, 1], "metallicFactor" : 0, "roughnessFactor" : 0}, "emissiveFactor" : [0, 0, 0], "alphaMode" : "OPAQUE", "doubleSided" : false}, {"name" : "Lampstrings_material", "pbrMetallicRoughness" : {"baseColorFactor" : [0.800000011920929, 0.800000011920929, 0.800000011920929, 1], "metallicFactor" : 0, "roughnessFactor" : 0}, "emissiveFactor" : [0, 0, 0], "alphaMode" : "OPAQUE", "doubleSided" : false}, {"name" : "Lampholder_material", "pbrMetallicRoughness" : {"baseColorFactor" : [0.8000000715255737, 0.7472918033599854, 0.6539444327354431, 1], "metallicFactor" : 0, "roughnessFactor" : 0}, "emissiveFactor" : [0, 0, 0], "alphaMode" : "OPAQUE", "doubleSided" : false}, {"name" : "Lampholder_material", "pbrMetallicRoughness" : {"baseColorFactor" : [0.8000000715255737, 0.7472918033599854, 0.6539444327354431, 1], "metallicFactor" : 0, "roughnessFactor" : 0}, "emissiveFactor" : [0, 0, 0], "alphaMode" : "OPAQUE", "doubleSided" : false}, {"name" : "Lamp_Bulb", "pbrMetallicRoughness" : {"baseColorFactor" : [0.800000011920929, 0.800000011920929, 0.800000011920929, 1], "metallicFactor" : 0, "roughnessFactor" : 0}, "emissiveFactor" : [0, 0, 0], "alphaMode" : "OPAQUE", "doubleSided" : false}, {"name" : "Lampshade_material", "pbrMetallicRoughness" : {"baseColorFactor" : [0.800000011920929, 0.6499999761581421, 0.44999998807907104, 1], "metallicFactor" : 0, "roughnessFactor" : 0}, "emissiveFactor" : [0, 0, 0], "alphaMode" : "OPAQUE", "doubleSided" : false}], "meshes" : [{"primitives" : [{"attributes" : {"POSITION" : 1, "NORMAL" : 2, "TEXCOORD_0" : 3}, "indices" : 0, "material" : 0, "mode" : 4}], "name" : "Cube"}, {"primitives" : [{"attributes" : {"POSITION" : 5, "NORMAL" : 6}, "indices" : 4, "material" : 1, "mode" : 4}], "name" : "dmesh"}, {"primitives" : [{"attributes" : {"POSITION" : 8, "NORMAL" : 9, "TEXCOORD_0" : 10}, "indices" : 7, "material" : 2, "mode" : 4}], "name" : ""}, {"primitives" : [{"attributes" : {"POSITION" : 12, "NORMAL" : 13}, "indices" : 11, "material" : 3, "mode" : 4}], "name" : "Gear"}, {"primitives" : [{"attributes" : {"POSITION" : 15, "NORMAL" : 16}, "indices" : 14, "material" : 4, "mode" : 4}], "name" : "Bolt"}, {"primitives" : [{"attributes" : {"POSITION" : 18, "NORMAL" : 19}, "indices" : 17, "material" : 5, "mode" : 4}], "name" : "Lamp_base"}, {"primitives" : [{"attributes" : {"POSITION" : 21, "NORMAL" : 22}, "indices" : 20, "material" : 6, "mode" : 4}], "name" : "Lampholder"}, {"primitives" : [{"attributes" : {"POSITION" : 24, "NORMAL" : 25}, "indices" : 23, "material" : 7, "mode" : 4}], "name" : "Lampstrings"}, {"primitives" : [{"attributes" : {"POSITION" : 27, "NORMAL" : 28}, "indices" : 26, "material" : 8, "mode" : 4}], "name" : "Lamp_B1"}, {"primitives" : [{"attributes" : {"POSITION" : 30, "NORMAL" : 31}, "indices" : 29, "material" : 9, "mode" : 4}], "name" : "Lamp_B2"}, {"primitives" : [{"attributes" : {"POSITION" : 33, "NORMAL" : 34, "TEXCOORD_0" : 35}, "indices" : 32, "material" : 10, "mode" : 4}], "name" : ""}, {"primitives" : [{"attributes" : {"POSITION" : 37, "NORMAL" : 38}, "indices" : 36, "material" : 11, "mode" : 4}], "name" : "Lampshade"}], "nodes" : [{"matrix" : [100, 0, 0, 0, 0, 100, 0, 0, 0, 0, 100, 0, 0, 0, 0, 1], "mesh" : 0, "name" : ""}, {"matrix" : [100, 0, 0, 0, 0, 100, 0, 0, 0, 0, 100, 0, 0, 0, 0, 1], "mesh" : 1, "name" : ""}, {"matrix" : [100, 0, 0, 0, 0, 100, 0, 0, 0, 0, 100, 0, 0, 0, 0, 1], "mesh" : 2, "name" : ""}, {"matrix" : [100, 0, 0, 0, 0, 100, 0, 0, 0, 0, 100, 0, 0, 0, 0, 1], "mesh" : 3, "name" : "Gear"}, {"matrix" : [100, 0, 0, 0, 0, 100, 0, 0, 0, 0, 100, 0, 0, 0, 0, 1], "mesh" : 4, "name" : "Bolt"}, {"mesh" : 8, "name" : "Lamp_B1"}, {"mesh" : 9, "name" : "Lamp_B2"}, {"children" : [5, 6], "mesh" : 7, "name" : "Lampstrings"}, {"mesh" : 10, "name" : "Lamp_Bulb"}, {"children" : [7, 8], "mesh" : 6, "name" : "Lampholder"}, {"mesh" : 11, "name" : "Lampshade"}, {"children" : [9, 10], "matrix" : [100, 0, 0, 0, 0, 100, 0, 0, 0, 0, 100, 0, 0, 0, 0, 1], "mesh" : 5, "name" : "Lamp_base"}], "scene" : 0, "scenes" : [{"nodes" : [0, 1, 2, 3, 4, 11]}]}