{
    "asset" : {
        "generator" : "Khronos glTF Blender I/O v1.7.33",
        "version" : "2.0"
    },
    "scene" : 0,
    "scenes" : [
        {
            "name" : "Scene",
            "nodes" : [
                0,
                1,
                2
            ]
        }
    ],
    "nodes" : [
        {
            "mesh" : 0,
            "name" : "\u041a\u0443\u0431"
        },
        {
            "mesh" : 1,
            "name" : "\u0421\u044e\u0437\u0430\u043d\u043d\u0430"
        },
        {
            "mesh" : 2,
            "name" : "\u041a\u0443\u0431.001",
            "translation" : [
                -0.3835626244544983,
                0.03271299600601196,
                0.6650630235671997
            ]
        }
    ],
    "materials" : [
        {
            "doubleSided" : true,
            "name" : "D",
            "pbrMetallicRoughness" : {
                "baseColorFactor" : [
                    0.8000000715255737,
                    0.22269049286842346,
                    0.09072043001651764,
                    1
                ],
                "metallicFactor" : 0,
                "roughnessFactor" : 0.5
            }
        },
        {
            "doubleSided" : true,
            "name" : "M",
            "pbrMetallicRoughness" : {
                "baseColorFactor" : [
                    0.0584932379424572,
                    0.22305285930633545,
                    0.8000000715255737,
                    1
                ],
                "metallicFactor" : 0,
                "roughnessFactor" : 0.4000000059604645
            }
        },
        {
            "doubleSided" : true,
            "name" : "V",
            "pbrMetallicRoughness" : {
                "baseColorFactor" : [
                    0.1258407086133957,
                    0.8000000715255737,
                    0.07231933623552322,
                    1
                ],
                "metallicFactor" : 0,
                "roughnessFactor" : 0.5
            }
        }
    ],
    "meshes" : [
        {
            "name" : "\u041a\u0443\u0431",
            "primitives" : [
                {
                    "attributes" : {
                        "POSITION" : 0,
                        "NORMAL" : 1,
                        "TEXCOORD_0" : 2
                    },
                    "indices" : 3,
                    "material" : 0
                }
            ]
        },
        {
            "name" : "\u0421\u044e\u0437\u0430\u043d\u043d\u0430",
            "primitives" : [
                {
                    "attributes" : {
                        "POSITION" : 4,
                        "NORMAL" : 5,
                        "TEXCOORD_0" : 6
                    },
                    "indices" : 7,
                    "material" : 1
                }
            ]
        },
        {
            "name" : "\u041a\u0443\u0431.004",
            "primitives" : [
                {
                    "attributes" : {
                        "POSITION" : 8,
                        "NORMAL" : 9,
                        "TEXCOORD_0" : 10
                    },
                    "indices" : 11,
                    "material" : 2
                }
            ]
        }
    ],
    "accessors" : [
        {
            "bufferView" : 0,
            "componentType" : 5126,
            "count" : 161,
            "max" : [
                0.800000011920929,
                2,
                1
            ],
            "min" : [
                -0.800000011920929,
                0,
                0
            ],
            "type" : "VEC3"
        },
        {
            "bufferView" : 1,
            "componentType" : 5126,
            "count" : 161,
            "type" : "VEC3"
        },
        {
            "bufferView" : 2,
            "componentType" : 5126,
            "count" : 161,
            "type" : "VEC2"
        },
        {
            "bufferView" : 3,
            "componentType" : 5123,
            "count" : 258,
            "type" : "SCALAR"
        },
        {
            "bufferView" : 4,
            "componentType" : 5126,
            "count" : 10048,
            "max" : [
                0.7452041506767273,
                1.490157127380371,
                0.9149090051651001
            ],
            "min" : [
                0.10935661941766739,
                1.0327129364013672,
                0.5317524671554565
            ],
            "type" : "VEC3"
        },
        {
            "bufferView" : 5,
            "componentType" : 5126,
            "count" : 10048,
            "type" : "VEC3"
        },
        {
            "bufferView" : 6,
            "componentType" : 5126,
            "count" : 10048,
            "type" : "VEC2"
        },
        {
            "bufferView" : 7,
            "componentType" : 5123,
            "count" : 47232,
            "type" : "SCALAR"
        },
        {
            "bufferView" : 8,
            "componentType" : 5126,
            "count" : 1810,
            "max" : [
                0.18555377423763275,
                0.5963127017021179,
                0.18555378913879395
            ],
            "min" : [
                -0.18555378913879395,
                2.315577937728186e-11,
                -0.18555378913879395
            ],
            "type" : "VEC3"
        },
        {
            "bufferView" : 9,
            "componentType" : 5126,
            "count" : 1810,
            "type" : "VEC3"
        },
        {
            "bufferView" : 10,
            "componentType" : 5126,
            "count" : 1810,
            "type" : "VEC2"
        },
        {
            "bufferView" : 11,
            "componentType" : 5123,
            "count" : 9600,
            "type" : "SCALAR"
        }
    ],
    "bufferViews" : [
        {
            "buffer" : 0,
            "byteLength" : 1932,
            "byteOffset" : 0
        },
        {
            "buffer" : 0,
            "byteLength" : 1932,
            "byteOffset" : 1932
        },
        {
            "buffer" : 0,
            "byteLength" : 1288,
            "byteOffset" : 3864
        },
        {
            "buffer" : 0,
            "byteLength" : 516,
            "byteOffset" : 5152
        },
        {
            "buffer" : 0,
            "byteLength" : 120576,
            "byteOffset" : 5668
        },
        {
            "buffer" : 0,
            "byteLength" : 120576,
            "byteOffset" : 126244
        },
        {
            "buffer" : 0,
            "byteLength" : 80384,
            "byteOffset" : 246820
        },
        {
            "buffer" : 0,
            "byteLength" : 94464,
            "byteOffset" : 327204
        },
        {
            "buffer" : 0,
            "byteLength" : 21720,
            "byteOffset" : 421668
        },
        {
            "buffer" : 0,
            "byteLength" : 21720,
            "byteOffset" : 443388
        },
        {
            "buffer" : 0,
            "byteLength" : 14480,
            "byteOffset" : 465108
        },
        {
            "buffer" : 0,
            "byteLength" : 19200,
            "byteOffset" : 479588
        }
    ],
    "buffers" : [
        {
            "byteLength" : 498788,
            "uri" : "data:application/octet-stream;base64,"
        }
    ]
}
